<svg width="24" height="24" viewBox="0 0 24 24" fill="none" xmlns="http://www.w3.org/2000/svg">
<path d="M5.25 10.25H20.25C20.4489 10.25 20.6397 10.329 20.7803 10.4697C20.921 10.6103 21 10.8011 21 11C21 11.1989 20.921 11.3897 20.7803 11.5303C20.6397 11.671 20.4489 11.75 20.25 11.75H5.25C5.05109 11.75 4.86032 11.671 4.71967 11.5303C4.57902 11.3897 4.5 11.1989 4.5 11C4.5 10.8011 4.57902 10.6103 4.71967 10.4697C4.86032 10.329 5.05109 10.25 5.25 10.25Z" fill="#3E3E3E"/>
<path d="M5.56086 11.0009L11.7814 17.2199C11.9222 17.3608 12.0013 17.5518 12.0013 17.7509C12.0013 17.9501 11.9222 18.1411 11.7814 18.2819C11.6405 18.4228 11.4495 18.5019 11.2504 18.5019C11.0512 18.5019 10.8602 18.4228 10.7194 18.2819L3.96936 11.5319C3.89952 11.4623 3.84411 11.3795 3.8063 11.2884C3.76849 11.1973 3.74902 11.0996 3.74902 11.0009C3.74902 10.9023 3.76849 10.8046 3.8063 10.7135C3.84411 10.6224 3.89952 10.5396 3.96936 10.4699L10.7194 3.71995C10.8602 3.57912 11.0512 3.5 11.2504 3.5C11.4495 3.5 11.6405 3.57912 11.7814 3.71995C11.9222 3.86078 12.0013 4.05178 12.0013 4.25095C12.0013 4.45011 11.9222 4.64112 11.7814 4.78195L5.56086 11.0009Z" fill="#3E3E3E"/>
</svg>
