<svg width="66" height="66" viewBox="0 0 66 66" fill="none" xmlns="http://www.w3.org/2000/svg">
<circle cx="33" cy="33" r="32" fill="#F3FAF8" stroke="#8ECB7E" stroke-width="2"/>
<path d="M37.332 38.482L39.572 36.242C39.8719 35.9421 40.2531 35.7368 40.6685 35.6514C41.084 35.5661 41.5153 35.6046 41.909 35.762L44.637 36.854C45.0391 37.0149 45.3838 37.2925 45.6265 37.6512C45.8693 38.0098 45.9991 38.4329 45.999 38.866V43.827C45.9997 44.1219 45.9403 44.4138 45.8242 44.6848C45.7082 44.9559 45.5381 45.2005 45.3243 45.4035C45.1105 45.6066 44.8575 45.7638 44.5808 45.8657C44.3041 45.9676 44.0095 46.0119 43.715 45.996C24.593 44.806 20.731 28.61 20.014 22.408C19.9793 22.1048 20.0092 21.7977 20.1017 21.5068C20.1941 21.216 20.3471 20.948 20.5506 20.7206C20.7541 20.4931 21.0034 20.3113 21.2822 20.1871C21.5609 20.0629 21.8629 19.9992 22.168 20H27.041C27.4741 20 27.8973 20.1297 28.2559 20.3725C28.6145 20.6153 28.8922 20.9599 29.053 21.362L30.144 24.09C30.3015 24.4838 30.3399 24.9151 30.2546 25.3305C30.1693 25.7459 29.964 26.1272 29.664 26.427L27.424 28.667C27.424 28.667 28.666 37.399 37.332 38.482Z" fill="#8ECB7E"/>
<path d="M43.999 30V28H39.413L45.999 21.414L44.585 20L37.999 26.586V22H35.999V30H43.999Z" fill="#8ECB7E"/>
</svg>
